{
  "accessors": [
    {
      "bufferView": 2,
      "componentType": 5126,
      "count": 380,
      "max": [
        1.1005507707595825,
        0.26399141550064087,
        1.0945221185684204
      ],
      "min": [
        -1.1005512475967407,
        -0.2639913558959961,
        -0.9469277858734131
      ],
      "type": "VEC3"
    },
    {
      "bufferView": 2,
      "byteOffset": 4560,
      "componentType": 5126,
      "count": 380,
      "max": [
        0.9998628497123718,
        0.9998670816421509,
        1.0
      ],
      "min": [
        -0.9998628497123718,
        -0.9998670816421509,
        -1.0
      ],
      "type": "VEC3"
    },
    {
      "bufferView": 1,
      "componentType": 5126,
      "count": 380,
      "max": [
        0.6249997615814209,
        0.5631265640258789
      ],
      "min": [
        0.375,
        0.43781328201293945
      ],
      "type": "VEC2"
    },
    {
      "bufferView": 0,
      "componentType": 5125,
      "count": 936,
      "type": "SCALAR"
    },
    {
      "bufferView": 2,
      "byteOffset": 9120,
      "componentType": 5126,
      "count": 24,
      "max": [
        0.9082326292991638,
        0.23847699165344238,
        1.06326162815094
      ],
      "min": [
        -0.9082325100898743,
        -0.2384769320487976,
        0.47889426350593567
      ],
      "type": "VEC3"
    },
    {
      "bufferView": 2,
      "byteOffset": 9408,
      "componentType": 5126,
      "count": 24,
      "max": [
        0.8660256862640381,
        2.7311733674650895e-07,
        0.9781476855278015
      ],
      "min": [
        -0.8660256266593933,
        -2.2030879165413353e-07,
        0.4999997019767761
      ],
      "type": "VEC3"
    },
    {
      "bufferView": 1,
      "byteOffset": 3040,
      "componentType": 5126,
      "count": 24,
      "max": [
        0.5999997854232788,
        0.5631265640258789
      ],
      "min": [
        0.5083332061767578,
        0.43781328201293945
      ],
      "type": "VEC2"
    },
    {
      "bufferView": 0,
      "byteOffset": 3744,
      "componentType": 5125,
      "count": 60,
      "type": "SCALAR"
    }
  ],
  "asset": {
    "extras": {
      "author": "Nurfaamk Cyform (https://sketchfab.com/nurhudaiffah)",
      "license": "CC-BY-4.0 (http://creativecommons.org/licenses/by/4.0/)",
      "source": "https://sketchfab.com/3d-models/futuristic-glasses-22f50f6ab73a46718c9f54e0ced9a8f7",
      "title": "FUTURISTIC GLASSES"
    },
    "generator": "Sketchfab-12.67.0",
    "version": "2.0"
  },
  "bufferViews": [
    {
      "buffer": 0,
      "byteLength": 3984,
      "name": "floatBufferViews",
      "target": 34963
    },
    {
      "buffer": 0,
      "byteLength": 3232,
      "byteOffset": 3984,
      "byteStride": 8,
      "name": "floatBufferViews",
      "target": 34962
    },
    {
      "buffer": 0,
      "byteLength": 9696,
      "byteOffset": 7216,
      "byteStride": 12,
      "name": "floatBufferViews",
      "target": 34962
    }
  ],
  "buffers": [
    {
      "byteLength": 16912,
      "uri": "glasses.bin"
    }
  ],
  "materials": [
    {
      "doubleSided": true,
      "name": "aiStandardSurface1",
      "pbrMetallicRoughness": {
        "metallicFactor": 0.0,
        "roughnessFactor": 0.6
      }
    },
    {
      "alphaMode": "BLEND",
      "doubleSided": true,
      "name": "aiStandardSurface2",
      "pbrMetallicRoughness": {
        "baseColorFactor": [
          1.0,
          1.0,
          1.0,
          0.580983231707317
        ],
        "metallicFactor": 0.0,
        "roughnessFactor": 0.6
      }
    }
  ],
  "meshes": [
    {
      "name": "pCylinder1_aiStandardSurface1_0",
      "primitives": [
        {
          "attributes": {
            "NORMAL": 1,
            "POSITION": 0,
            "TEXCOORD_0": 2
          },
          "indices": 3,
          "material": 0,
          "mode": 4
        }
      ]
    },
    {
      "name": "pCylinder1_aiStandardSurface2_0",
      "primitives": [
        {
          "attributes": {
            "NORMAL": 5,
            "POSITION": 4,
            "TEXCOORD_0": 6
          },
          "indices": 7,
          "material": 1,
          "mode": 4
        }
      ]
    }
  ],
  "nodes": [
    {
      "children": [
        1
      ],
      "matrix": [
        1.0,
        0.0,
        0.0,
        0.0,
        0.0,
        2.220446049250313e-16,
        -1.0,
        0.0,
        0.0,
        1.0,
        2.220446049250313e-16,
        0.0,
        0.0,
        0.0,
        0.0,
        1.0
      ],
      "name": "Sketchfab_model"
    },
    {
      "children": [
        2
      ],
      "matrix": [
        1.0,
        0.0,
        0.0,
        0.0,
        0.0,
        0.0,
        1.0,
        0.0,
        0.0,
        -1.0,
        0.0,
        0.0,
        0.0,
        0.0,
        0.0,
        1.0
      ],
      "name": "41633daa3ab746e6b23c9811fd3a54bc.fbx"
    },
    {
      "children": [
        3
      ],
      "name": "RootNode"
    },
    {
      "children": [
        4,
        5
      ],
      "matrix": [
        1.0,
        0.0,
        0.0,
        0.0,
        0.0,
        1.0,
        0.0,
        0.0,
        0.0,
        0.0,
        1.0,
        0.0,
        0.0,
        0.2234879583120346,
        0.0,
        1.0
      ],
      "name": "pCylinder1"
    },
    {
      "mesh": 0,
      "name": "pCylinder1_aiStandardSurface1_0"
    },
    {
      "mesh": 1,
      "name": "pCylinder1_aiStandardSurface2_0"
    }
  ],
  "scene": 0,
  "scenes": [
    {
      "name": "Sketchfab_Scene",
      "nodes": [
        0
      ]
    }
  ]
}
