{
	"asset":{
		"generator":"Khronos glTF Blender I/O v4.2.57",
		"version":"2.0"
	},
	"scene":0,
	"scenes":[
		{
			"name":"Scene",
			"nodes":[
				0,
				1,
				2,
				3
			]
		}
	],
	"nodes":[
		{
			"mesh":0,
			"name":"Strap",
			"rotation":[
				0.1391730159521103,
				0,
				0,
				0.9902681112289429
			],
			"scale":[
				12.048234939575195,
				12.048234939575195,
				9.508234977722168
			],
			"translation":[
				0.4508892595767975,
				5.345516204833984,
				-0.7918901443481445
			]
		},
		{
			"mesh":1,
			"name":"Sci-fi lowpoly VR Glasses.002",
			"scale":[
				12.176182746887207,
				12.176182746887207,
				12.176182746887207
			],
			"translation":[
				0.4483165442943573,
				4.908504962921143,
				1.2065038681030273
			]
		},
		{
			"mesh":2,
			"name":"Sci-fi lowpoly VR Glasses.004",
			"scale":[
				27.896183013916016,
				12.176182746887207,
				12.176182746887207
			],
			"translation":[
				0.4598369598388672,
				4.9354047775268555,
				1.0962283611297607
			]
		},
		{
			"mesh":3,
			"name":"Male body reference",
			"scale":[
				13.404563903808594,
				11.784564018249512,
				11.784564018249512
			],
			"translation":[
				0.45029088854789734,
				4.687049388885498,
				-0.1962680071592331
			]
		}
	],
	"materials":[
		{
			"doubleSided":true,
			"name":"VR_Glasses",
			"pbrMetallicRoughness":{
				"baseColorTexture":{
					"index":0
				},
				"metallicFactor":0,
				"roughnessFactor":0.5
			}
		},
		{
			"doubleSided":true,
			"name":"VR_Glasses.002",
			"pbrMetallicRoughness":{
				"baseColorTexture":{
					"index":1
				},
				"metallicFactor":0,
				"roughnessFactor":0.5
			}
		},
		{
			"doubleSided":true,
			"name":"body_bsd",
			"pbrMetallicRoughness":{
				"baseColorFactor":[
					0.11493632942438126,
					0.11493632942438126,
					0.11493632942438126,
					1
				],
				"metallicFactor":0,
				"roughnessFactor":0.4000000059604645
			}
		},
		{
			"doubleSided":true,
			"name":"eye_bsd",
			"pbrMetallicRoughness":{
				"baseColorFactor":[
					0.800000011920929,
					0.800000011920929,
					0.800000011920929,
					1
				],
				"metallicFactor":0,
				"roughnessFactor":0.4000000059604645
			}
		}
	],
	"meshes":[
		{
			"name":"Cube.001",
			"primitives":[
				{
					"attributes":{
						"POSITION":0,
						"NORMAL":1,
						"TEXCOORD_0":2,
						"COLOR_0":3,
						"COLOR_1":4
					},
					"indices":5,
					"material":0
				}
			]
		},
		{
			"name":"Cube.003",
			"primitives":[
				{
					"attributes":{
						"POSITION":6,
						"NORMAL":7,
						"TEXCOORD_0":8,
						"COLOR_0":9,
						"COLOR_1":10
					},
					"indices":11,
					"material":1
				}
			]
		},
		{
			"name":"Cube.005",
			"primitives":[
				{
					"attributes":{
						"POSITION":12,
						"NORMAL":13,
						"TEXCOORD_0":14,
						"COLOR_0":15,
						"COLOR_1":16
					},
					"indices":17,
					"material":1
				}
			]
		},
		{
			"name":"cuerpo_completo",
			"primitives":[
				{
					"attributes":{
						"POSITION":18,
						"NORMAL":19,
						"TEXCOORD_0":20,
						"COLOR_0":21,
						"COLOR_1":22
					},
					"indices":23,
					"material":2
				},
				{
					"attributes":{
						"POSITION":24,
						"NORMAL":25,
						"TEXCOORD_0":26,
						"COLOR_0":27,
						"COLOR_1":28
					},
					"indices":29,
					"material":3
				}
			]
		}
	],
	"textures":[
		{
			"sampler":0,
			"source":0
		},
		{
			"sampler":0,
			"source":0
		}
	],
	"images":[
		{
			"mimeType":"image/png",
			"name":"Texture",
			"uri":"Texture.png"
		}
	],
	"accessors":[
		{
			"bufferView":0,
			"componentType":5126,
			"count":510,
			"max":[
				0.08963792771100998,
				0.029786420986056328,
				0.1426158845424652
			],
			"min":[
				-0.08912736922502518,
				-0.028560752049088478,
				-0.06881575286388397
			],
			"type":"VEC3"
		},
		{
			"bufferView":1,
			"componentType":5126,
			"count":510,
			"type":"VEC3"
		},
		{
			"bufferView":2,
			"componentType":5126,
			"count":510,
			"type":"VEC2"
		},
		{
			"bufferView":3,
			"componentType":5121,
			"count":510,
			"normalized":true,
			"type":"VEC4"
		},
		{
			"bufferView":4,
			"componentType":5126,
			"count":510,
			"type":"VEC3"
		},
		{
			"bufferView":5,
			"componentType":5123,
			"count":822,
			"type":"SCALAR"
		},
		{
			"bufferView":6,
			"componentType":5126,
			"count":476,
			"max":[
				0.08148043602705002,
				0.03870568796992302,
				0.02177153155207634
			],
			"min":[
				-0.0814913883805275,
				-0.04098965972661972,
				-0.06370913982391357
			],
			"type":"VEC3"
		},
		{
			"bufferView":7,
			"componentType":5126,
			"count":476,
			"type":"VEC3"
		},
		{
			"bufferView":8,
			"componentType":5126,
			"count":476,
			"type":"VEC2"
		},
		{
			"bufferView":9,
			"componentType":5121,
			"count":476,
			"normalized":true,
			"type":"VEC4"
		},
		{
			"bufferView":10,
			"componentType":5126,
			"count":476,
			"type":"VEC3"
		},
		{
			"bufferView":11,
			"componentType":5123,
			"count":732,
			"type":"SCALAR"
		},
		{
			"bufferView":12,
			"componentType":5126,
			"count":64,
			"max":[
				0.016659436747431755,
				0.04829278215765953,
				0.02282830700278282
			],
			"min":[
				-0.016670385375618935,
				0.03016483224928379,
				-0.012259320355951786
			],
			"type":"VEC3"
		},
		{
			"bufferView":13,
			"componentType":5126,
			"count":64,
			"type":"VEC3"
		},
		{
			"bufferView":14,
			"componentType":5126,
			"count":64,
			"type":"VEC2"
		},
		{
			"bufferView":15,
			"componentType":5121,
			"count":64,
			"normalized":true,
			"type":"VEC4"
		},
		{
			"bufferView":16,
			"componentType":5126,
			"count":64,
			"type":"VEC3"
		},
		{
			"bufferView":17,
			"componentType":5123,
			"count":96,
			"type":"SCALAR"
		},
		{
			"bufferView":18,
			"componentType":5126,
			"count":5347,
			"max":[
				0.10037526488304138,
				0.13026893138885498,
				0.12230727076530457
			],
			"min":[
				-0.09792482107877731,
				-0.13428199291229248,
				-0.10657854378223419
			],
			"type":"VEC3"
		},
		{
			"bufferView":19,
			"componentType":5126,
			"count":5347,
			"type":"VEC3"
		},
		{
			"bufferView":20,
			"componentType":5126,
			"count":5347,
			"type":"VEC2"
		},
		{
			"bufferView":21,
			"componentType":5121,
			"count":5347,
			"normalized":true,
			"type":"VEC4"
		},
		{
			"bufferView":22,
			"componentType":5126,
			"count":5347,
			"type":"VEC3"
		},
		{
			"bufferView":23,
			"componentType":5123,
			"count":30642,
			"type":"SCALAR"
		},
		{
			"bufferView":24,
			"componentType":5126,
			"count":290,
			"max":[
				0.04694211855530739,
				0.02839827537536621,
				0.08868463337421417
			],
			"min":[
				-0.0461730994284153,
				0.00020623207092285156,
				0.07267235219478607
			],
			"type":"VEC3"
		},
		{
			"bufferView":25,
			"componentType":5126,
			"count":290,
			"type":"VEC3"
		},
		{
			"bufferView":26,
			"componentType":5126,
			"count":290,
			"type":"VEC2"
		},
		{
			"bufferView":27,
			"componentType":5121,
			"count":290,
			"normalized":true,
			"type":"VEC4"
		},
		{
			"bufferView":28,
			"componentType":5126,
			"count":290,
			"type":"VEC3"
		},
		{
			"bufferView":29,
			"componentType":5123,
			"count":1440,
			"type":"SCALAR"
		}
	],
	"bufferViews":[
		{
			"buffer":0,
			"byteLength":6120,
			"byteOffset":0,
			"target":34962
		},
		{
			"buffer":0,
			"byteLength":6120,
			"byteOffset":6120,
			"target":34962
		},
		{
			"buffer":0,
			"byteLength":4080,
			"byteOffset":12240,
			"target":34962
		},
		{
			"buffer":0,
			"byteLength":2040,
			"byteOffset":16320,
			"target":34962
		},
		{
			"buffer":0,
			"byteLength":6120,
			"byteOffset":18360,
			"target":34962
		},
		{
			"buffer":0,
			"byteLength":1644,
			"byteOffset":24480,
			"target":34963
		},
		{
			"buffer":0,
			"byteLength":5712,
			"byteOffset":26124,
			"target":34962
		},
		{
			"buffer":0,
			"byteLength":5712,
			"byteOffset":31836,
			"target":34962
		},
		{
			"buffer":0,
			"byteLength":3808,
			"byteOffset":37548,
			"target":34962
		},
		{
			"buffer":0,
			"byteLength":1904,
			"byteOffset":41356,
			"target":34962
		},
		{
			"buffer":0,
			"byteLength":5712,
			"byteOffset":43260,
			"target":34962
		},
		{
			"buffer":0,
			"byteLength":1464,
			"byteOffset":48972,
			"target":34963
		},
		{
			"buffer":0,
			"byteLength":768,
			"byteOffset":50436,
			"target":34962
		},
		{
			"buffer":0,
			"byteLength":768,
			"byteOffset":51204,
			"target":34962
		},
		{
			"buffer":0,
			"byteLength":512,
			"byteOffset":51972,
			"target":34962
		},
		{
			"buffer":0,
			"byteLength":256,
			"byteOffset":52484,
			"target":34962
		},
		{
			"buffer":0,
			"byteLength":768,
			"byteOffset":52740,
			"target":34962
		},
		{
			"buffer":0,
			"byteLength":192,
			"byteOffset":53508,
			"target":34963
		},
		{
			"buffer":0,
			"byteLength":64164,
			"byteOffset":53700,
			"target":34962
		},
		{
			"buffer":0,
			"byteLength":64164,
			"byteOffset":117864,
			"target":34962
		},
		{
			"buffer":0,
			"byteLength":42776,
			"byteOffset":182028,
			"target":34962
		},
		{
			"buffer":0,
			"byteLength":21388,
			"byteOffset":224804,
			"target":34962
		},
		{
			"buffer":0,
			"byteLength":64164,
			"byteOffset":246192,
			"target":34962
		},
		{
			"buffer":0,
			"byteLength":61284,
			"byteOffset":310356,
			"target":34963
		},
		{
			"buffer":0,
			"byteLength":3480,
			"byteOffset":371640,
			"target":34962
		},
		{
			"buffer":0,
			"byteLength":3480,
			"byteOffset":375120,
			"target":34962
		},
		{
			"buffer":0,
			"byteLength":2320,
			"byteOffset":378600,
			"target":34962
		},
		{
			"buffer":0,
			"byteLength":1160,
			"byteOffset":380920,
			"target":34962
		},
		{
			"buffer":0,
			"byteLength":3480,
			"byteOffset":382080,
			"target":34962
		},
		{
			"buffer":0,
			"byteLength":2880,
			"byteOffset":385560,
			"target":34963
		}
	],
	"samplers":[
		{
			"magFilter":9729,
			"minFilter":9987,
			"wrapS":33071,
			"wrapT":33071
		}
	],
	"buffers":[
		{
			"byteLength":388440,
			"uri":"Collable.bin"
		}
	]
}
